# xmcd
#
# Track frame offsets: 
#        150
#        12244
#        27876
#        36355
#        48561
#        61635
#        69083
#        78735
#        94666
#        111933
#        141328
#        154304
#        165163
#        179452
#        192661
#        208857
#        227544
#        236262
#        254773
#        267790
#        280688
#        294028
#
# Disc length: 4086 seconds
#
# Revision: 0
# Processed by: cddbd v1.5.2PL0 Copyright (c) Steve Scherf et al.
# Submitted via: ExactAudioCopy v0.99pb4
#
DISCID=300ff416
DTITLE=Various Artist - The Rojac Story: The Best Of Rojac and Tay-Ster
DYEAR=1969
DGENRE=Soul
TTITLE0=Clarence Reid - Nobody But You Babe
TTITLE1=Kim Tolliver - (You're Trying To) Cop My Stuff
TTITLE2=The Third Guitar - Lovin' Lies
TTITLE3=Little Jewel - I Want To
TTITLE4=Chico and Buddy - Can You Dig It
TTITLE5=Jo Armstead - This And That
TTITLE6=Clarence Reid - Skunks, Hogs And Dogs
TTITLE7=Chuck-A-Luck and The Lovemen LTD - Are You Experience
TTITLE8=Damn Sam The Miracle Man And The Soul Congregation - Lucky Man
TTITLE9=Aleke Kanonu Meets Tolbert The Miracle Man - Nwanne, Nwanne, N
TTITLE9=wanne
TTITLE10=The Third Guitar - Down To The River
TTITLE11=Lavell Hardy - Don't Lose Your Groove
TTITLE12=Curtis Lee and The KCP's - Get In My Bag
TTITLE13=Chuck-A-Luck and The Lovemen LTD - Whip Ya
TTITLE14=Damn Sam The Miracle Man And The Soul Congregation - I've Got
TTITLE14=It
TTITLE15=Damn Sam The Miracle Man And The Soul Congregation - Give Me 
TTITLE15=Another Joint
TTITLE16=Big Maybelle - Quittin' Time
TTITLE17=Damn Sam The Miracle Man And The Soul Congregation - Smash
TTITLE18=Chuck-A-Luck and The Lovemen LTD - Whip You
TTITLE19=The Third Guitar - Baby Don't Cry
TTITLE20=Kim Tolliver - Driving Me To The Arms Of A Stranger
TTITLE21=Big Maybelle - I Can't Wait Any Longer
EXTD=
EXTT0=
EXTT1=
EXTT2=
EXTT3=
EXTT4=
EXTT5=
EXTT6=
EXTT7=
EXTT8=
EXTT9=
EXTT10=
EXTT11=
EXTT12=
EXTT13=
EXTT14=
EXTT15=
EXTT16=
EXTT17=
EXTT18=
EXTT19=
EXTT20=
EXTT21=
PLAYORDER=
